# xmcd
#
# Track frame offsets: 
#        150
#        16745
#        31205
#        54737
#        73377
#        83302
#        104905
#        123252
#        136865
#        158442
#        183900
#        199575
#        215537
#        231810
#        250490
#        268550
#        285295
#        305325
#        318690
#        333160
#
# Disc length: 4685 seconds
#
# Revision: 12
# Processed by: cddbd v1.5.2PL0 Copyright (c) Steve Scherf et al.
# Submitted via: ExactAudioCopy v1.1
#
DISCID=13124b14
DTITLE=John Denver - A Song's Best Friend: The Very Best of John Denve
DTITLE=r [CD 1)
DYEAR=2004
DGENRE=Country
TTITLE0=Leaving on a Jet Plane
TTITLE1=Take Me Home, Country Roads
TTITLE2=Sunshine on My Shoulders
TTITLE3=Poems, Prayers and Promises
TTITLE4=The Eagle and the Hawk
TTITLE5=Rocky Mountain High
TTITLE6=Farewell Andromeda (Welcome to My Morning)
TTITLE7=Annie's Song
TTITLE8=Back Home Again
TTITLE9=Sweet Surrender
TTITLE10=Thank God I'm a Country Boy
TTITLE11=I'm Sorry
TTITLE12=Calypso
TTITLE13=Fly Away
TTITLE14=Looking for Space
TTITLE15=Like a Sad Song
TTITLE16=My Sweet Lady
TTITLE17=Perhaps Love (with Plácido Domingo)
TTITLE18=Shanghai Breezes
TTITLE19=Wild Montana Skies (with Emmylou Harris)
EXTD=YEAR: 2004
EXTT0=
EXTT1=
EXTT2=
EXTT3=
EXTT4=
EXTT5=
EXTT6=
EXTT7=
EXTT8=
EXTT9=
EXTT10=
EXTT11=
EXTT12=
EXTT13=
EXTT14=
EXTT15=
EXTT16=
EXTT17=
EXTT18=
EXTT19=
PLAYORDER=
